<svg width="64" height="64" viewBox="0 0 64 64" fill="none" xmlns="http://www.w3.org/2000/svg">
<path d="M32 64C49.6731 64 64 49.6731 64 32C64 14.3269 49.6731 0 32 0C14.3269 0 0 14.3269 0 32C0 49.6731 14.3269 64 32 64Z" fill="#3E3E5E"/>
<path d="M32 60.6356C47.815 60.6356 60.6356 47.815 60.6356 32C60.6356 16.185 47.815 3.36441 32 3.36441C16.185 3.36441 3.36441 16.185 3.36441 32C3.36441 47.815 16.185 60.6356 32 60.6356Z" fill="#282841" stroke="#323250" stroke-width="2" stroke-miterlimit="10"/>
<path d="M42.8234 23.1719C42.8266 24.1236 42.6363 25.066 42.264 25.9418C41.8917 26.8177 41.3453 27.6087 40.6579 28.2668L34.7227 33.9852C37.1766 30.97 37.0686 26.5194 34.3175 23.6353C34.114 23.4228 33.8984 23.2223 33.6717 23.0348L21.5218 11.3293C21.4155 11.2271 21.3305 11.1049 21.2715 10.9698C21.2125 10.8347 21.1807 10.6892 21.1779 10.5418C21.1751 10.3944 21.2015 10.2479 21.2554 10.1106C21.3093 9.97339 21.3897 9.84813 21.4921 9.74199C22.1568 9.05186 22.951 8.49945 23.8293 8.11633C24.7076 7.73321 25.6528 7.52688 26.6109 7.50913C27.5689 7.49137 28.5211 7.66255 29.413 8.01287C30.3048 8.3632 31.119 8.8858 31.8088 9.55084L40.6572 18.077C41.3449 18.735 41.8916 19.5259 42.264 20.4018C42.6364 21.2777 42.8267 22.2202 42.8234 23.1719Z" fill="url(#paint0_linear_1_4)"/>
<path d="M29.977 37.615C27.2205 34.7234 27.1152 30.2601 29.5846 27.2428L23.7014 32.9112C23.014 33.5736 22.4656 34.3663 22.088 35.2431C21.7105 36.1199 21.5116 37.0631 21.5027 38.0176C21.4939 38.9722 21.6755 39.919 22.0368 40.8025C22.398 41.6861 22.9318 42.4889 23.6069 43.1638L36.899 56.4566C37.1095 56.667 37.395 56.7853 37.6927 56.7853C37.9903 56.7853 38.2758 56.667 38.4863 56.4566C39.1639 55.7792 39.7013 54.975 40.068 54.0898C40.4347 53.2047 40.6234 52.256 40.6234 51.2979C40.6234 50.3398 40.4347 49.3911 40.068 48.5059C39.7013 47.6208 39.1639 46.8166 38.4863 46.1391L30.4485 38.1013L30.4681 38.0824C30.3019 37.9338 30.1351 37.7805 29.977 37.615Z" fill="url(#paint1_linear_1_4)"/>
<defs>
<linearGradient id="paint0_linear_1_4" x1="21.178" y1="20.7471" x2="42.8227" y2="20.7471" gradientUnits="userSpaceOnUse">
<stop stop-color="#FF8B65"/>
<stop offset="1" stop-color="#FF3D56"/>
</linearGradient>
<linearGradient id="paint1_linear_1_4" x1="21.5049" y1="42.0142" x2="40.6255" y2="42.0142" gradientUnits="userSpaceOnUse">
<stop stop-color="#FF8B65"/>
<stop offset="1" stop-color="#FF3D56"/>
</linearGradient>
</defs>
</svg>
